<svg xmlns="http://www.w3.org/2000/svg" width="53.5" height="34.39" viewBox="0 0 53.5 34.39">
  <g id="Group_1386" data-name="Group 1386" transform="translate(-1410.835 -797.418)">
    <path id="Path_809" data-name="Path 809" d="M1447.075,812.208a7.02,7.02,0,1,0-7.02-7.02A7.074,7.074,0,0,0,1447.075,812.208Zm-18.98,0a7.02,7.02,0,1,0-7.02-7.02A7.162,7.162,0,0,0,1428.095,812.208Zm0,4.68c-5.59,0-16.51,2.86-16.51,8.19v5.85h33.02v-5.85C1444.6,819.748,1433.685,816.888,1428.095,816.888Zm18.98,0a14.921,14.921,0,0,0-2.34.13c2.73,2.08,4.68,4.68,4.68,8.19v5.85h14.17v-5.85C1463.585,819.748,1452.535,816.888,1447.075,816.888Z" fill="none" stroke="#575759" stroke-miterlimit="10" stroke-width="1.5"/>
  </g>
</svg>
